<svg width="194" height="190" viewBox="0 0 194 190" fill="none" xmlns="http://www.w3.org/2000/svg">
<g filter="url(#filter0_i_954_237)">
<path fill-rule="evenodd" clip-rule="evenodd" d="M113.621 129.951C106.268 129.951 98.8393 127.794 92.3507 123.291L90.9758 122.332C84.1394 117.007 81.1394 114.007 77.6394 110.007C75.9931 108.126 74.9727 104.007 77.6394 102.007C80.3061 100.007 83.1394 101.007 85.1394 103.007C86.135 104.003 87.0565 104.98 87.9652 105.944L87.9654 105.945C90.5473 108.683 93.0267 111.313 96.8127 113.943L98.1876 114.901C110.452 123.416 127.375 120.365 135.9 108.093L161 74.5961V69.4C161 55.9587 161 49.2381 158.384 44.1042C156.083 39.5883 152.412 35.9168 147.896 33.6158C142.947 31.0944 136.524 31.0034 124.029 31.0001L114.633 44.526C113.023 46.8464 109.838 47.4188 107.521 45.8088C105.203 44.1988 104.628 41.0146 106.238 38.6967L111.585 31H71.4C57.9587 31 51.2381 31 46.1042 33.6158C41.5883 35.9168 37.9168 39.5883 35.6158 44.1042C33 49.2381 33 55.9587 33 69.4V98.3612L49.8124 75.9246C56.9807 65.6078 68.5804 60.0495 80.3794 60.0495C87.7317 60.0495 95.1607 62.2064 101.649 66.7093L103.024 67.6676C109.861 72.9927 112.861 75.9927 116.361 79.9927C118.007 81.8741 119.027 85.9927 116.361 87.9927C113.694 89.9927 110.861 88.9927 108.861 86.9927C107.865 85.997 106.943 85.0195 106.035 84.0555C103.453 81.3168 100.973 78.6868 97.1873 76.0575L95.8124 75.0991C83.5483 66.584 66.6254 69.6354 58.1 81.9071L33 115.404V120.6C33 134.041 33 140.762 35.6158 145.896C37.9168 150.412 41.5883 154.083 46.1042 156.384C51.0529 158.906 57.4758 158.997 69.9711 159L79.3674 145.474C80.9774 143.154 84.1616 142.581 86.4795 144.191C88.7974 145.801 89.3724 148.985 87.7624 151.303L82.4155 159H122.6C136.041 159 142.762 159 147.896 156.384C152.412 154.083 156.083 150.412 158.384 145.896C161 140.762 161 134.041 161 120.6V91.6388L144.188 114.075C137.019 124.392 125.42 129.951 113.621 129.951Z" fill="#1B7EDC"/>
</g>
<path d="M103.651 63.8379L103.645 63.8338C96.5492 58.9097 88.419 56.5495 80.3794 56.5495C67.5153 56.5495 54.8343 62.6011 46.9748 73.8748L11.4126 121.334L11.3749 121.384L11.339 121.435C-1.50502 139.924 3.09156 165.409 21.5957 178.261L21.6047 178.268L22.9473 179.194C22.9492 179.195 22.951 179.197 22.9529 179.198C31.9026 185.414 42.7574 187.774 53.4762 185.844L53.4768 185.844C64.2042 183.911 73.5481 177.905 79.7636 168.952L90.6368 153.3L90.637 153.3C93.3505 149.393 92.3805 144.028 88.4762 141.317C84.5722 138.605 79.2067 139.568 76.4929 143.477C76.4929 143.477 76.4928 143.477 76.4928 143.477C76.4924 143.478 76.4921 143.478 76.4918 143.479L65.619 159.13L65.6187 159.13C62.0185 164.315 56.6323 167.775 50.4235 168.896C44.2083 170.012 37.9565 168.655 32.7609 165.043L32.7547 165.039L32.7484 165.034L31.4054 164.11C31.4035 164.108 31.4016 164.107 31.3997 164.106C20.7217 156.684 18.079 141.979 25.3414 131.461L60.9009 84.0059L60.9386 83.9556L60.9745 83.904C68.3972 73.2194 83.1382 70.5623 93.8137 77.9723C93.8145 77.9729 93.8154 77.9735 93.8163 77.9741L95.1859 78.9288L95.1909 78.9323C98.6555 81.3383 100.806 83.6192 103.306 86.2706C104.253 87.2742 105.249 88.3309 106.386 89.4676C107.731 90.8131 109.538 92.0113 111.696 92.4289C113.969 92.8689 116.346 92.3784 118.461 90.7927C121.048 88.8525 121.66 85.9601 121.466 83.6545C121.277 81.4198 120.325 79.2088 118.995 77.6879C115.338 73.509 112.174 70.358 105.175 64.9064L105.102 64.8493L105.026 64.7963L103.651 63.8379Z" fill="white" stroke="white" stroke-width="7"/>
<path d="M90.3494 126.162L90.3553 126.166C97.4508 131.09 105.581 133.451 113.621 133.451C126.485 133.451 139.166 127.399 147.025 116.125L182.587 68.6664L182.625 68.6161L182.661 68.5645C195.505 50.0757 190.908 24.5909 172.404 11.7385L172.395 11.7324L171.053 10.806C171.051 10.8047 171.049 10.8034 171.047 10.8021C162.097 4.58639 151.243 2.22629 140.524 4.15612L140.523 4.15622C129.796 6.0894 120.452 12.0949 114.236 21.048L103.363 36.6999L103.363 36.7001C100.649 40.6067 101.62 45.9715 105.524 48.6834C109.428 51.3951 114.793 50.4322 117.507 46.5228C117.507 46.5228 117.507 46.5227 117.507 46.5226C117.508 46.5221 117.508 46.5217 117.508 46.5212L128.381 30.8701L128.381 30.8696C131.981 25.6855 137.368 22.2248 143.576 21.1039C149.792 19.9879 156.043 21.3455 161.239 24.957L161.245 24.9613L161.252 24.9656L162.595 25.8905C162.596 25.8918 162.598 25.8931 162.6 25.8945C173.278 33.3157 175.921 48.0209 168.659 58.5388L133.099 105.994L133.061 106.044L133.026 106.096C125.603 116.781 110.862 119.438 100.186 112.028C100.185 112.027 100.185 112.026 100.184 112.026L98.8141 111.071L98.8091 111.068C95.3445 108.662 93.1938 106.381 90.6937 103.729C89.7473 102.726 88.7509 101.669 87.6143 100.532C86.2687 99.1869 84.4623 97.9887 82.3045 97.5711C80.0309 97.1311 77.6537 97.6216 75.5394 99.2073C72.9524 101.148 72.3402 104.04 72.5344 106.345C72.7226 108.58 73.6746 110.791 75.0054 112.312C78.6619 116.491 81.8262 119.642 88.8251 125.094L88.8983 125.151L88.9745 125.204L90.3494 126.162Z" fill="#F7E41A" stroke="#F7E41A" stroke-width="7"/>
<defs>
<filter id="filter0_i_954_237" x="33" y="31" width="128" height="142" filterUnits="userSpaceOnUse" color-interpolation-filters="sRGB">
<feFlood flood-opacity="0" result="BackgroundImageFix"/>
<feBlend mode="normal" in="SourceGraphic" in2="BackgroundImageFix" result="shape"/>
<feColorMatrix in="SourceAlpha" type="matrix" values="0 0 0 0 0 0 0 0 0 0 0 0 0 0 0 0 0 0 127 0" result="hardAlpha"/>
<feOffset dy="14"/>
<feGaussianBlur stdDeviation="7"/>
<feComposite in2="hardAlpha" operator="arithmetic" k2="-1" k3="1"/>
<feColorMatrix type="matrix" values="0 0 0 0 0 0 0 0 0 0 0 0 0 0 0 0 0 0 0.25 0"/>
<feBlend mode="normal" in2="shape" result="effect1_innerShadow_954_237"/>
</filter>
</defs>
</svg>
