<svg width="358" height="60" viewBox="0 0 358 60" fill="none" xmlns="http://www.w3.org/2000/svg">
<path d="M17.472 47.768C14.272 47.768 11.456 47.064 9.024 45.656C6.63467 44.248 4.77867 42.3067 3.456 39.832C2.13333 37.3573 1.472 34.52 1.472 31.32C1.472 28.12 2.13333 25.304 3.456 22.872C4.77867 20.3973 6.63467 18.456 9.024 17.048C11.456 15.64 14.272 14.936 17.472 14.936C20.9707 14.936 24 15.7893 26.56 17.496C29.12 19.2027 30.9547 21.5067 32.064 24.408L23.616 28.184C23.0187 26.8613 22.2293 25.8373 21.248 25.112C20.2667 24.344 19.0293 23.96 17.536 23.96C15.6587 23.96 14.08 24.6213 12.8 25.944C11.52 27.224 10.88 29.016 10.88 31.32C10.88 33.624 11.52 35.4373 12.8 36.76C14.08 38.04 15.6587 38.68 17.536 38.68C19.0293 38.68 20.2667 38.3173 21.248 37.592C22.2293 36.8667 23.0187 35.8427 23.616 34.52L32.064 38.232C30.9547 41.1333 29.0987 43.4587 26.496 45.208C23.8933 46.9147 20.8853 47.768 17.472 47.768ZM50.1075 47.768C46.8648 47.768 44.0062 47.0853 41.5315 45.72C39.0568 44.312 37.1368 42.3707 35.7715 39.896C34.4062 37.4213 33.7235 34.584 33.7235 31.384C33.7235 28.1413 34.4062 25.2827 35.7715 22.808C37.1368 20.3333 39.0568 18.4133 41.5315 17.048C44.0062 15.64 46.8648 14.936 50.1075 14.936C53.3928 14.936 56.2728 15.64 58.7475 17.048C61.2222 18.4133 63.1422 20.3333 64.5075 22.808C65.9155 25.2827 66.6195 28.1413 66.6195 31.384C66.6195 34.584 65.9155 37.4213 64.5075 39.896C63.1422 42.3707 61.2222 44.312 58.7475 45.72C56.2728 47.0853 53.3928 47.768 50.1075 47.768ZM50.1075 38.68C52.1982 38.68 53.8835 38.0187 55.1635 36.696C56.4862 35.3307 57.1475 33.56 57.1475 31.384C57.1475 29.1653 56.4862 27.3733 55.1635 26.008C53.8835 24.6427 52.1982 23.96 50.1075 23.96C48.1022 23.96 46.4382 24.6427 45.1155 26.008C43.8355 27.3307 43.1955 29.1013 43.1955 31.32C43.1955 33.5387 43.8355 35.3307 45.1155 36.696C46.4382 38.0187 48.1022 38.68 50.1075 38.68ZM88.4205 47.768C85.6472 47.768 83.2365 47.1493 81.1885 45.912C79.1832 44.632 77.6258 42.776 76.5165 40.344C75.4072 37.912 74.8525 34.9253 74.8525 31.384C74.8525 27.9707 75.4072 25.048 76.5165 22.616C77.6685 20.1413 79.2685 18.2427 81.3165 16.92C83.3645 15.5973 85.7538 14.936 88.4845 14.936C91.3432 14.936 93.8392 15.64 95.9725 17.048C98.1485 18.4133 99.8338 20.3333 101.029 22.808C102.266 25.2827 102.885 28.1413 102.885 31.384C102.885 34.584 102.266 37.4213 101.029 39.896C99.7912 42.3707 98.0845 44.312 95.9085 45.72C93.7325 47.0853 91.2365 47.768 88.4205 47.768ZM71.1405 59.16V15.704H78.1165L80.4845 23.704H79.9085V38.296H80.4845V59.16H71.1405ZM86.6925 39C88.6125 39 90.1912 38.296 91.4285 36.888C92.7085 35.4373 93.3485 33.6027 93.3485 31.384C93.3485 29.1227 92.7085 27.288 91.4285 25.88C90.1912 24.4293 88.6125 23.704 86.6925 23.704C84.8152 23.704 83.2365 24.4293 81.9565 25.88C80.6765 27.288 80.0365 29.1013 80.0365 31.32C80.0365 33.5813 80.6765 35.4373 81.9565 36.888C83.2365 38.296 84.8152 39 86.6925 39ZM115.87 44.632L103.326 15.704H112.798L124.702 43.224L115.87 44.632ZM109.15 59.16L128.03 15.704H137.502L118.686 59.16H109.15ZM149.971 47.32C148.392 47.32 146.942 47 145.619 46.36C144.296 45.72 143.23 44.7387 142.419 43.416C141.608 42.0507 141.203 40.2373 141.203 37.976V3.416H150.483V34.648C150.483 36.2267 150.76 37.2507 151.315 37.72C151.912 38.1467 152.659 38.36 153.555 38.36V47C153.128 47.0853 152.552 47.1493 151.827 47.192C151.144 47.2773 150.526 47.32 149.971 47.32ZM167.925 47H158.581V15.704H167.925V47ZM157.749 5.848C157.749 4.184 158.24 2.84 159.221 1.816C160.245 0.791999 161.589 0.279999 163.253 0.279999C164.917 0.279999 166.24 0.791999 167.221 1.816C168.245 2.84 168.757 4.184 168.757 5.848C168.757 7.46933 168.245 8.792 167.221 9.816C166.24 10.7973 164.917 11.288 163.253 11.288C161.589 11.288 160.245 10.7973 159.221 9.816C158.24 8.792 157.749 7.46933 157.749 5.848ZM193.967 14.936C196.058 14.936 197.764 15.2987 199.087 16.024C200.41 16.7067 201.412 17.6667 202.095 18.904C202.82 20.1413 203.29 21.5493 203.503 23.128C203.759 24.664 203.887 26.264 203.887 27.928V47H194.543V28.44C194.543 26.648 194.223 25.4747 193.583 24.92C192.943 24.3227 192.09 24.024 191.023 24.024C190.127 24.024 189.188 24.216 188.207 24.6C187.268 24.9413 186.351 25.432 185.455 26.072C184.559 26.712 183.77 27.4373 183.087 28.248L181.423 23.512H184.047V47H174.703V15.704H181.615L183.535 21.912L180.335 21.656C181.444 20.4187 182.703 19.288 184.111 18.264C185.519 17.24 187.055 16.4293 188.719 15.832C190.383 15.2347 192.132 14.936 193.967 14.936ZM216.542 31.256V30.04L229.342 15.704H239.838L225.63 31.768L225.374 28.696L240.158 47H229.278L216.542 31.256ZM210.078 3.416H219.358V47H210.078V3.416ZM246.773 47.64C245.621 47.64 244.554 47.3413 243.573 46.744C242.591 46.1467 241.802 45.3573 241.205 44.376C240.607 43.3947 240.309 42.328 240.309 41.176C240.309 39.9813 240.607 38.8933 241.205 37.912C241.802 36.9307 242.591 36.1627 243.573 35.608C244.554 35.0107 245.621 34.712 246.773 34.712C248.01 34.712 249.119 35.0107 250.101 35.608C251.082 36.1627 251.85 36.9307 252.405 37.912C253.002 38.8933 253.301 39.9813 253.301 41.176C253.301 42.328 253.002 43.3947 252.405 44.376C251.85 45.3573 251.082 46.1467 250.101 46.744C249.119 47.3413 248.01 47.64 246.773 47.64ZM270.81 47.768C267.994 47.768 265.498 47.0853 263.322 45.72C261.146 44.312 259.439 42.3707 258.202 39.896C257.007 37.3787 256.41 34.52 256.41 31.32C256.41 28.12 257.028 25.2827 258.266 22.808C259.503 20.3333 261.209 18.4133 263.385 17.048C265.562 15.64 268.058 14.936 270.874 14.936C273.647 14.936 276.036 15.576 278.042 16.856C280.09 18.0933 281.668 19.928 282.778 22.36C283.93 24.792 284.506 27.7787 284.506 31.32C284.506 34.6907 283.93 37.6133 282.778 40.088C281.626 42.52 280.026 44.4187 277.978 45.784C275.93 47.1067 273.54 47.768 270.81 47.768ZM272.602 39C274.522 39 276.1 38.296 277.338 36.888C278.618 35.4373 279.258 33.5813 279.258 31.32C279.258 29.1013 278.618 27.288 277.338 25.88C276.1 24.4293 274.522 23.704 272.602 23.704C270.682 23.704 269.082 24.4293 267.802 25.88C266.564 27.288 265.946 29.1013 265.946 31.32C265.946 33.5813 266.564 35.4373 267.802 36.888C269.082 38.296 270.682 39 272.602 39ZM281.178 47L278.81 39H279.386V24.408H278.81V3.416H288.154V47H281.178ZM308.152 47.576C305.037 47.576 302.285 46.9147 299.896 45.592C297.549 44.2693 295.715 42.392 294.392 39.96C293.112 37.528 292.472 34.6693 292.472 31.384C292.472 28.1413 293.112 25.2827 294.392 22.808C295.715 20.3333 297.549 18.4133 299.896 17.048C302.285 15.64 305.037 14.936 308.152 14.936C311.352 14.936 314.125 15.6613 316.472 17.112C318.819 18.5627 320.632 20.5253 321.912 23C323.192 25.432 323.832 28.184 323.832 31.256C323.832 31.8107 323.811 32.344 323.768 32.856C323.725 33.368 323.683 33.7733 323.64 34.072H299.768V27.416H316.472L315.384 30.168C315.384 27.8213 314.787 25.9013 313.592 24.408C312.44 22.9147 310.648 22.168 308.216 22.168C306.04 22.168 304.291 22.8293 302.968 24.152C301.688 25.4747 301.048 27.224 301.048 29.4V32.92C301.048 35.2667 301.709 37.1013 303.032 38.424C304.397 39.704 306.275 40.344 308.664 40.344C310.669 40.344 312.248 39.9387 313.4 39.128C314.595 38.3173 315.597 37.3147 316.408 36.12L322.744 39.64C321.379 42.1573 319.459 44.12 316.984 45.528C314.509 46.8933 311.565 47.576 308.152 47.576ZM357.206 15.704L345.942 47H336.918L325.078 15.704H334.678L342.678 39.448H340.118L347.798 15.704H357.206Z" fill="#002A52"/>
<path d="M0 51.16H66.0206V56.28H0V51.16ZM85.6044 51.16H105.278V56.28H85.6044V51.16ZM127.268 51.16H357.782V56.28H127.268V51.16Z" fill="#002A52"/>
</svg>
